<?xml version="1.0" encoding="utf-8" standalone="no"?>
<!DOCTYPE svg PUBLIC "-//W3C//DTD SVG 1.1//EN"
  "http://www.w3.org/Graphics/SVG/1.1/DTD/svg11.dtd">
<svg xmlns:xlink="http://www.w3.org/1999/xlink" width="648pt" height="504pt" viewBox="0 0 648 504" xmlns="http://www.w3.org/2000/svg" version="1.1">
 <metadata>
  <rdf:RDF xmlns:dc="http://purl.org/dc/elements/1.1/" xmlns:cc="http://creativecommons.org/ns#" xmlns:rdf="http://www.w3.org/1999/02/22-rdf-syntax-ns#">
   <cc:Work>
    <dc:type rdf:resource="http://purl.org/dc/dcmitype/StillImage"/>
    <dc:date>2024-03-04T14:54:49.916142</dc:date>
    <dc:format>image/svg+xml</dc:format>
    <dc:creator>
     <cc:Agent>
      <dc:title>Matplotlib v3.8.0, https://matplotlib.org/</dc:title>
     </cc:Agent>
    </dc:creator>
   </cc:Work>
  </rdf:RDF>
 </metadata>
 <defs>
  <style type="text/css">*{stroke-linejoin: round; stroke-linecap: butt}</style>
 </defs>
 <g id="figure_1">
  <g id="patch_1">
   <path d="M 0 504 
L 648 504 
L 648 0 
L 0 0 
z
" style="fill: #ffffff"/>
  </g>
  <g id="axes_1">
   <g id="patch_2">
    <path d="M 146.14 476.12 
L 637.2 476.12 
L 637.2 26.88 
L 146.14 26.88 
z
" style="fill: #ffffff"/>
   </g>
   <g id="patch_3">
    <path d="M 297.080013 471.440417 
L 293.571802 471.440417 
L 293.571802 462.08125 
L 297.080013 462.08125 
z
" clip-path="url(#p1b6530b093)" style="fill: #1f77b4"/>
   </g>
   <g id="patch_4">
    <path d="M 297.080013 452.722083 
L 555.708673 452.722083 
L 555.708673 443.362917 
L 297.080013 443.362917 
z
" clip-path="url(#p1b6530b093)" style="fill: #1f77b4"/>
   </g>
   <g id="patch_5">
    <path d="M 297.080013 434.00375 
L 307.381247 434.00375 
L 307.381247 424.644583 
L 297.080013 424.644583 
z
" clip-path="url(#p1b6530b093)" style="fill: #1f77b4"/>
   </g>
   <g id="patch_6">
    <path d="M 297.080013 415.285417 
L 362.813592 415.285417 
L 362.813592 405.92625 
L 297.080013 405.92625 
z
" clip-path="url(#p1b6530b093)" style="fill: #1f77b4"/>
   </g>
   <g id="patch_7">
    <path d="M 297.080013 396.567083 
L 391.354461 396.567083 
L 391.354461 387.207917 
L 297.080013 387.207917 
z
" clip-path="url(#p1b6530b093)" style="fill: #1f77b4"/>
   </g>
   <g id="patch_8">
    <path d="M 297.080013 377.84875 
L 214.934648 377.84875 
L 214.934648 368.489583 
L 297.080013 368.489583 
z
" clip-path="url(#p1b6530b093)" style="fill: #1f77b4"/>
   </g>
   <g id="patch_9">
    <path d="M 297.080013 359.130417 
L 221.336611 359.130417 
L 221.336611 349.77125 
L 297.080013 349.77125 
z
" clip-path="url(#p1b6530b093)" style="fill: #1f77b4"/>
   </g>
   <g id="patch_10">
    <path d="M 297.080013 340.412083 
L 348.314911 340.412083 
L 348.314911 331.052917 
L 297.080013 331.052917 
z
" clip-path="url(#p1b6530b093)" style="fill: #1f77b4"/>
   </g>
   <g id="patch_11">
    <path d="M 297.080013 321.69375 
L 247.906733 321.69375 
L 247.906733 312.334583 
L 297.080013 312.334583 
z
" clip-path="url(#p1b6530b093)" style="fill: #1f77b4"/>
   </g>
   <g id="patch_12">
    <path d="M 297.080013 302.975417 
L 168.460909 302.975417 
L 168.460909 293.61625 
L 297.080013 293.61625 
z
" clip-path="url(#p1b6530b093)" style="fill: #1f77b4"/>
   </g>
   <g id="patch_13">
    <path d="M 297.080013 284.257083 
L 319.049257 284.257083 
L 319.049257 274.897917 
L 297.080013 274.897917 
z
" clip-path="url(#p1b6530b093)" style="fill: #1f77b4"/>
   </g>
   <g id="patch_14">
    <path d="M 297.080013 265.53875 
L 313.907797 265.53875 
L 313.907797 256.179583 
L 297.080013 256.179583 
z
" clip-path="url(#p1b6530b093)" style="fill: #1f77b4"/>
   </g>
   <g id="patch_15">
    <path d="M 297.080013 246.820417 
L 329.472378 246.820417 
L 329.472378 237.46125 
L 297.080013 237.46125 
z
" clip-path="url(#p1b6530b093)" style="fill: #1f77b4"/>
   </g>
   <g id="patch_16">
    <path d="M 297.080013 228.102083 
L 308.440494 228.102083 
L 308.440494 218.742917 
L 297.080013 218.742917 
z
" clip-path="url(#p1b6530b093)" style="fill: #1f77b4"/>
   </g>
   <g id="patch_17">
    <path d="M 297.080013 209.38375 
L 268.760867 209.38375 
L 268.760867 200.024583 
L 297.080013 200.024583 
z
" clip-path="url(#p1b6530b093)" style="fill: #1f77b4"/>
   </g>
   <g id="patch_18">
    <path d="M 297.080013 190.665417 
L 614.879091 190.665417 
L 614.879091 181.30625 
L 297.080013 181.30625 
z
" clip-path="url(#p1b6530b093)" style="fill: #1f77b4"/>
   </g>
   <g id="patch_19">
    <path d="M 297.080013 171.947083 
L 240.307582 171.947083 
L 240.307582 162.587917 
L 297.080013 162.587917 
z
" clip-path="url(#p1b6530b093)" style="fill: #1f77b4"/>
   </g>
   <g id="patch_20">
    <path d="M 297.080013 153.22875 
L 231.526239 153.22875 
L 231.526239 143.869583 
L 297.080013 143.869583 
z
" clip-path="url(#p1b6530b093)" style="fill: #1f77b4"/>
   </g>
   <g id="patch_21">
    <path d="M 297.080013 134.510417 
L 302.360032 134.510417 
L 302.360032 125.15125 
L 297.080013 125.15125 
z
" clip-path="url(#p1b6530b093)" style="fill: #1f77b4"/>
   </g>
   <g id="patch_22">
    <path d="M 297.080013 115.792083 
L 262.44174 115.792083 
L 262.44174 106.432917 
L 297.080013 106.432917 
z
" clip-path="url(#p1b6530b093)" style="fill: #1f77b4"/>
   </g>
   <g id="patch_23">
    <path d="M 297.080013 97.07375 
L 268.744055 97.07375 
L 268.744055 87.714583 
L 297.080013 87.714583 
z
" clip-path="url(#p1b6530b093)" style="fill: #1f77b4"/>
   </g>
   <g id="patch_24">
    <path d="M 297.080013 78.355417 
L 314.2658 78.355417 
L 314.2658 68.99625 
L 297.080013 68.99625 
z
" clip-path="url(#p1b6530b093)" style="fill: #1f77b4"/>
   </g>
   <g id="patch_25">
    <path d="M 297.080013 59.637083 
L 341.223766 59.637083 
L 341.223766 50.277917 
L 297.080013 50.277917 
z
" clip-path="url(#p1b6530b093)" style="fill: #1f77b4"/>
   </g>
   <g id="patch_26">
    <path d="M 297.080013 40.91875 
L 199.482228 40.91875 
L 199.482228 31.559583 
L 297.080013 31.559583 
z
" clip-path="url(#p1b6530b093)" style="fill: #1f77b4"/>
   </g>
   <g id="matplotlib.axis_1">
    <g id="xtick_1">
     <g id="line2d_1">
      <defs>
       <path id="m8456d04811" d="M 0 0 
L 0 3.5 
" style="stroke: #000000; stroke-width: 0.8"/>
      </defs>
      <g>
       <use xlink:href="#m8456d04811" x="206.655192" y="476.12" style="stroke: #000000; stroke-width: 0.8"/>
      </g>
     </g>
     <g id="text_1">
      <!-- −10 -->
      <g transform="translate(196.102849 490.718437) scale(0.1 -0.1)">
       <defs>
        <path id="DejaVuSans-2212" d="M 678 2272 
L 4684 2272 
L 4684 1741 
L 678 1741 
L 678 2272 
z
" transform="scale(0.015625)"/>
        <path id="DejaVuSans-31" d="M 794 531 
L 1825 531 
L 1825 4091 
L 703 3866 
L 703 4441 
L 1819 4666 
L 2450 4666 
L 2450 531 
L 3481 531 
L 3481 0 
L 794 0 
L 794 531 
z
" transform="scale(0.015625)"/>
        <path id="DejaVuSans-30" d="M 2034 4250 
Q 1547 4250 1301 3770 
Q 1056 3291 1056 2328 
Q 1056 1369 1301 889 
Q 1547 409 2034 409 
Q 2525 409 2770 889 
Q 3016 1369 3016 2328 
Q 3016 3291 2770 3770 
Q 2525 4250 2034 4250 
z
M 2034 4750 
Q 2819 4750 3233 4129 
Q 3647 3509 3647 2328 
Q 3647 1150 3233 529 
Q 2819 -91 2034 -91 
Q 1250 -91 836 529 
Q 422 1150 422 2328 
Q 422 3509 836 4129 
Q 1250 4750 2034 4750 
z
" transform="scale(0.015625)"/>
       </defs>
       <use xlink:href="#DejaVuSans-2212"/>
       <use xlink:href="#DejaVuSans-31" x="83.789062"/>
       <use xlink:href="#DejaVuSans-30" x="147.412109"/>
      </g>
     </g>
    </g>
    <g id="xtick_2">
     <g id="line2d_2">
      <g>
       <use xlink:href="#m8456d04811" x="297.080013" y="476.12" style="stroke: #000000; stroke-width: 0.8"/>
      </g>
     </g>
     <g id="text_2">
      <!-- 0 -->
      <g transform="translate(293.898763 490.718437) scale(0.1 -0.1)">
       <use xlink:href="#DejaVuSans-30"/>
      </g>
     </g>
    </g>
    <g id="xtick_3">
     <g id="line2d_3">
      <g>
       <use xlink:href="#m8456d04811" x="387.504834" y="476.12" style="stroke: #000000; stroke-width: 0.8"/>
      </g>
     </g>
     <g id="text_3">
      <!-- 10 -->
      <g transform="translate(381.142334 490.718437) scale(0.1 -0.1)">
       <use xlink:href="#DejaVuSans-31"/>
       <use xlink:href="#DejaVuSans-30" x="63.623047"/>
      </g>
     </g>
    </g>
    <g id="xtick_4">
     <g id="line2d_4">
      <g>
       <use xlink:href="#m8456d04811" x="477.929655" y="476.12" style="stroke: #000000; stroke-width: 0.8"/>
      </g>
     </g>
     <g id="text_4">
      <!-- 20 -->
      <g transform="translate(471.567155 490.718437) scale(0.1 -0.1)">
       <defs>
        <path id="DejaVuSans-32" d="M 1228 531 
L 3431 531 
L 3431 0 
L 469 0 
L 469 531 
Q 828 903 1448 1529 
Q 2069 2156 2228 2338 
Q 2531 2678 2651 2914 
Q 2772 3150 2772 3378 
Q 2772 3750 2511 3984 
Q 2250 4219 1831 4219 
Q 1534 4219 1204 4116 
Q 875 4013 500 3803 
L 500 4441 
Q 881 4594 1212 4672 
Q 1544 4750 1819 4750 
Q 2544 4750 2975 4387 
Q 3406 4025 3406 3419 
Q 3406 3131 3298 2873 
Q 3191 2616 2906 2266 
Q 2828 2175 2409 1742 
Q 1991 1309 1228 531 
z
" transform="scale(0.015625)"/>
       </defs>
       <use xlink:href="#DejaVuSans-32"/>
       <use xlink:href="#DejaVuSans-30" x="63.623047"/>
      </g>
     </g>
    </g>
    <g id="xtick_5">
     <g id="line2d_5">
      <g>
       <use xlink:href="#m8456d04811" x="568.354476" y="476.12" style="stroke: #000000; stroke-width: 0.8"/>
      </g>
     </g>
     <g id="text_5">
      <!-- 30 -->
      <g transform="translate(561.991976 490.718437) scale(0.1 -0.1)">
       <defs>
        <path id="DejaVuSans-33" d="M 2597 2516 
Q 3050 2419 3304 2112 
Q 3559 1806 3559 1356 
Q 3559 666 3084 287 
Q 2609 -91 1734 -91 
Q 1441 -91 1130 -33 
Q 819 25 488 141 
L 488 750 
Q 750 597 1062 519 
Q 1375 441 1716 441 
Q 2309 441 2620 675 
Q 2931 909 2931 1356 
Q 2931 1769 2642 2001 
Q 2353 2234 1838 2234 
L 1294 2234 
L 1294 2753 
L 1863 2753 
Q 2328 2753 2575 2939 
Q 2822 3125 2822 3475 
Q 2822 3834 2567 4026 
Q 2313 4219 1838 4219 
Q 1578 4219 1281 4162 
Q 984 4106 628 3988 
L 628 4550 
Q 988 4650 1302 4700 
Q 1616 4750 1894 4750 
Q 2613 4750 3031 4423 
Q 3450 4097 3450 3541 
Q 3450 3153 3228 2886 
Q 3006 2619 2597 2516 
z
" transform="scale(0.015625)"/>
       </defs>
       <use xlink:href="#DejaVuSans-33"/>
       <use xlink:href="#DejaVuSans-30" x="63.623047"/>
      </g>
     </g>
    </g>
   </g>
   <g id="matplotlib.axis_2">
    <g id="ytick_1">
     <g id="line2d_6">
      <defs>
       <path id="ma438dcc0fe" d="M 0 0 
L -3.5 0 
" style="stroke: #000000; stroke-width: 0.8"/>
      </defs>
      <g>
       <use xlink:href="#ma438dcc0fe" x="146.14" y="466.760833" style="stroke: #000000; stroke-width: 0.8"/>
      </g>
     </g>
     <g id="text_6">
      <!-- Amount of ligand (mol %) -->
      <g transform="translate(10.832188 470.560052) scale(0.1 -0.1)">
       <defs>
        <path id="DejaVuSans-41" d="M 2188 4044 
L 1331 1722 
L 3047 1722 
L 2188 4044 
z
M 1831 4666 
L 2547 4666 
L 4325 0 
L 3669 0 
L 3244 1197 
L 1141 1197 
L 716 0 
L 50 0 
L 1831 4666 
z
" transform="scale(0.015625)"/>
        <path id="DejaVuSans-6d" d="M 3328 2828 
Q 3544 3216 3844 3400 
Q 4144 3584 4550 3584 
Q 5097 3584 5394 3201 
Q 5691 2819 5691 2113 
L 5691 0 
L 5113 0 
L 5113 2094 
Q 5113 2597 4934 2840 
Q 4756 3084 4391 3084 
Q 3944 3084 3684 2787 
Q 3425 2491 3425 1978 
L 3425 0 
L 2847 0 
L 2847 2094 
Q 2847 2600 2669 2842 
Q 2491 3084 2119 3084 
Q 1678 3084 1418 2786 
Q 1159 2488 1159 1978 
L 1159 0 
L 581 0 
L 581 3500 
L 1159 3500 
L 1159 2956 
Q 1356 3278 1631 3431 
Q 1906 3584 2284 3584 
Q 2666 3584 2933 3390 
Q 3200 3197 3328 2828 
z
" transform="scale(0.015625)"/>
        <path id="DejaVuSans-6f" d="M 1959 3097 
Q 1497 3097 1228 2736 
Q 959 2375 959 1747 
Q 959 1119 1226 758 
Q 1494 397 1959 397 
Q 2419 397 2687 759 
Q 2956 1122 2956 1747 
Q 2956 2369 2687 2733 
Q 2419 3097 1959 3097 
z
M 1959 3584 
Q 2709 3584 3137 3096 
Q 3566 2609 3566 1747 
Q 3566 888 3137 398 
Q 2709 -91 1959 -91 
Q 1206 -91 779 398 
Q 353 888 353 1747 
Q 353 2609 779 3096 
Q 1206 3584 1959 3584 
z
" transform="scale(0.015625)"/>
        <path id="DejaVuSans-75" d="M 544 1381 
L 544 3500 
L 1119 3500 
L 1119 1403 
Q 1119 906 1312 657 
Q 1506 409 1894 409 
Q 2359 409 2629 706 
Q 2900 1003 2900 1516 
L 2900 3500 
L 3475 3500 
L 3475 0 
L 2900 0 
L 2900 538 
Q 2691 219 2414 64 
Q 2138 -91 1772 -91 
Q 1169 -91 856 284 
Q 544 659 544 1381 
z
M 1991 3584 
L 1991 3584 
z
" transform="scale(0.015625)"/>
        <path id="DejaVuSans-6e" d="M 3513 2113 
L 3513 0 
L 2938 0 
L 2938 2094 
Q 2938 2591 2744 2837 
Q 2550 3084 2163 3084 
Q 1697 3084 1428 2787 
Q 1159 2491 1159 1978 
L 1159 0 
L 581 0 
L 581 3500 
L 1159 3500 
L 1159 2956 
Q 1366 3272 1645 3428 
Q 1925 3584 2291 3584 
Q 2894 3584 3203 3211 
Q 3513 2838 3513 2113 
z
" transform="scale(0.015625)"/>
        <path id="DejaVuSans-74" d="M 1172 4494 
L 1172 3500 
L 2356 3500 
L 2356 3053 
L 1172 3053 
L 1172 1153 
Q 1172 725 1289 603 
Q 1406 481 1766 481 
L 2356 481 
L 2356 0 
L 1766 0 
Q 1100 0 847 248 
Q 594 497 594 1153 
L 594 3053 
L 172 3053 
L 172 3500 
L 594 3500 
L 594 4494 
L 1172 4494 
z
" transform="scale(0.015625)"/>
        <path id="DejaVuSans-20" transform="scale(0.015625)"/>
        <path id="DejaVuSans-66" d="M 2375 4863 
L 2375 4384 
L 1825 4384 
Q 1516 4384 1395 4259 
Q 1275 4134 1275 3809 
L 1275 3500 
L 2222 3500 
L 2222 3053 
L 1275 3053 
L 1275 0 
L 697 0 
L 697 3053 
L 147 3053 
L 147 3500 
L 697 3500 
L 697 3744 
Q 697 4328 969 4595 
Q 1241 4863 1831 4863 
L 2375 4863 
z
" transform="scale(0.015625)"/>
        <path id="DejaVuSans-6c" d="M 603 4863 
L 1178 4863 
L 1178 0 
L 603 0 
L 603 4863 
z
" transform="scale(0.015625)"/>
        <path id="DejaVuSans-69" d="M 603 3500 
L 1178 3500 
L 1178 0 
L 603 0 
L 603 3500 
z
M 603 4863 
L 1178 4863 
L 1178 4134 
L 603 4134 
L 603 4863 
z
" transform="scale(0.015625)"/>
        <path id="DejaVuSans-67" d="M 2906 1791 
Q 2906 2416 2648 2759 
Q 2391 3103 1925 3103 
Q 1463 3103 1205 2759 
Q 947 2416 947 1791 
Q 947 1169 1205 825 
Q 1463 481 1925 481 
Q 2391 481 2648 825 
Q 2906 1169 2906 1791 
z
M 3481 434 
Q 3481 -459 3084 -895 
Q 2688 -1331 1869 -1331 
Q 1566 -1331 1297 -1286 
Q 1028 -1241 775 -1147 
L 775 -588 
Q 1028 -725 1275 -790 
Q 1522 -856 1778 -856 
Q 2344 -856 2625 -561 
Q 2906 -266 2906 331 
L 2906 616 
Q 2728 306 2450 153 
Q 2172 0 1784 0 
Q 1141 0 747 490 
Q 353 981 353 1791 
Q 353 2603 747 3093 
Q 1141 3584 1784 3584 
Q 2172 3584 2450 3431 
Q 2728 3278 2906 2969 
L 2906 3500 
L 3481 3500 
L 3481 434 
z
" transform="scale(0.015625)"/>
        <path id="DejaVuSans-61" d="M 2194 1759 
Q 1497 1759 1228 1600 
Q 959 1441 959 1056 
Q 959 750 1161 570 
Q 1363 391 1709 391 
Q 2188 391 2477 730 
Q 2766 1069 2766 1631 
L 2766 1759 
L 2194 1759 
z
M 3341 1997 
L 3341 0 
L 2766 0 
L 2766 531 
Q 2569 213 2275 61 
Q 1981 -91 1556 -91 
Q 1019 -91 701 211 
Q 384 513 384 1019 
Q 384 1609 779 1909 
Q 1175 2209 1959 2209 
L 2766 2209 
L 2766 2266 
Q 2766 2663 2505 2880 
Q 2244 3097 1772 3097 
Q 1472 3097 1187 3025 
Q 903 2953 641 2809 
L 641 3341 
Q 956 3463 1253 3523 
Q 1550 3584 1831 3584 
Q 2591 3584 2966 3190 
Q 3341 2797 3341 1997 
z
" transform="scale(0.015625)"/>
        <path id="DejaVuSans-64" d="M 2906 2969 
L 2906 4863 
L 3481 4863 
L 3481 0 
L 2906 0 
L 2906 525 
Q 2725 213 2448 61 
Q 2172 -91 1784 -91 
Q 1150 -91 751 415 
Q 353 922 353 1747 
Q 353 2572 751 3078 
Q 1150 3584 1784 3584 
Q 2172 3584 2448 3432 
Q 2725 3281 2906 2969 
z
M 947 1747 
Q 947 1113 1208 752 
Q 1469 391 1925 391 
Q 2381 391 2643 752 
Q 2906 1113 2906 1747 
Q 2906 2381 2643 2742 
Q 2381 3103 1925 3103 
Q 1469 3103 1208 2742 
Q 947 2381 947 1747 
z
" transform="scale(0.015625)"/>
        <path id="DejaVuSans-28" d="M 1984 4856 
Q 1566 4138 1362 3434 
Q 1159 2731 1159 2009 
Q 1159 1288 1364 580 
Q 1569 -128 1984 -844 
L 1484 -844 
Q 1016 -109 783 600 
Q 550 1309 550 2009 
Q 550 2706 781 3412 
Q 1013 4119 1484 4856 
L 1984 4856 
z
" transform="scale(0.015625)"/>
        <path id="DejaVuSans-25" d="M 4653 2053 
Q 4381 2053 4226 1822 
Q 4072 1591 4072 1178 
Q 4072 772 4226 539 
Q 4381 306 4653 306 
Q 4919 306 5073 539 
Q 5228 772 5228 1178 
Q 5228 1588 5073 1820 
Q 4919 2053 4653 2053 
z
M 4653 2450 
Q 5147 2450 5437 2106 
Q 5728 1763 5728 1178 
Q 5728 594 5436 251 
Q 5144 -91 4653 -91 
Q 4153 -91 3862 251 
Q 3572 594 3572 1178 
Q 3572 1766 3864 2108 
Q 4156 2450 4653 2450 
z
M 1428 4353 
Q 1159 4353 1004 4120 
Q 850 3888 850 3481 
Q 850 3069 1003 2837 
Q 1156 2606 1428 2606 
Q 1700 2606 1854 2837 
Q 2009 3069 2009 3481 
Q 2009 3884 1853 4118 
Q 1697 4353 1428 4353 
z
M 4250 4750 
L 4750 4750 
L 1831 -91 
L 1331 -91 
L 4250 4750 
z
M 1428 4750 
Q 1922 4750 2215 4408 
Q 2509 4066 2509 3481 
Q 2509 2891 2217 2550 
Q 1925 2209 1428 2209 
Q 931 2209 642 2551 
Q 353 2894 353 3481 
Q 353 4063 643 4406 
Q 934 4750 1428 4750 
z
" transform="scale(0.015625)"/>
        <path id="DejaVuSans-29" d="M 513 4856 
L 1013 4856 
Q 1481 4119 1714 3412 
Q 1947 2706 1947 2009 
Q 1947 1309 1714 600 
Q 1481 -109 1013 -844 
L 513 -844 
Q 928 -128 1133 580 
Q 1338 1288 1338 2009 
Q 1338 2731 1133 3434 
Q 928 4138 513 4856 
z
" transform="scale(0.015625)"/>
       </defs>
       <use xlink:href="#DejaVuSans-41"/>
       <use xlink:href="#DejaVuSans-6d" x="68.408203"/>
       <use xlink:href="#DejaVuSans-6f" x="165.820312"/>
       <use xlink:href="#DejaVuSans-75" x="227.001953"/>
       <use xlink:href="#DejaVuSans-6e" x="290.380859"/>
       <use xlink:href="#DejaVuSans-74" x="353.759766"/>
       <use xlink:href="#DejaVuSans-20" x="392.96875"/>
       <use xlink:href="#DejaVuSans-6f" x="424.755859"/>
       <use xlink:href="#DejaVuSans-66" x="485.9375"/>
       <use xlink:href="#DejaVuSans-20" x="521.142578"/>
       <use xlink:href="#DejaVuSans-6c" x="552.929688"/>
       <use xlink:href="#DejaVuSans-69" x="580.712891"/>
       <use xlink:href="#DejaVuSans-67" x="608.496094"/>
       <use xlink:href="#DejaVuSans-61" x="671.972656"/>
       <use xlink:href="#DejaVuSans-6e" x="733.251953"/>
       <use xlink:href="#DejaVuSans-64" x="796.630859"/>
       <use xlink:href="#DejaVuSans-20" x="860.107422"/>
       <use xlink:href="#DejaVuSans-28" x="891.894531"/>
       <use xlink:href="#DejaVuSans-6d" x="930.908203"/>
       <use xlink:href="#DejaVuSans-6f" x="1028.320312"/>
       <use xlink:href="#DejaVuSans-6c" x="1089.501953"/>
       <use xlink:href="#DejaVuSans-20" x="1117.285156"/>
       <use xlink:href="#DejaVuSans-25" x="1149.072266"/>
       <use xlink:href="#DejaVuSans-29" x="1244.091797"/>
      </g>
     </g>
    </g>
    <g id="ytick_2">
     <g id="line2d_7">
      <g>
       <use xlink:href="#ma438dcc0fe" x="146.14" y="448.0425" style="stroke: #000000; stroke-width: 0.8"/>
      </g>
     </g>
     <g id="text_7">
      <!-- Amount of base (eq.) -->
      <g transform="translate(33.349375 451.841719) scale(0.1 -0.1)">
       <defs>
        <path id="DejaVuSans-62" d="M 3116 1747 
Q 3116 2381 2855 2742 
Q 2594 3103 2138 3103 
Q 1681 3103 1420 2742 
Q 1159 2381 1159 1747 
Q 1159 1113 1420 752 
Q 1681 391 2138 391 
Q 2594 391 2855 752 
Q 3116 1113 3116 1747 
z
M 1159 2969 
Q 1341 3281 1617 3432 
Q 1894 3584 2278 3584 
Q 2916 3584 3314 3078 
Q 3713 2572 3713 1747 
Q 3713 922 3314 415 
Q 2916 -91 2278 -91 
Q 1894 -91 1617 61 
Q 1341 213 1159 525 
L 1159 0 
L 581 0 
L 581 4863 
L 1159 4863 
L 1159 2969 
z
" transform="scale(0.015625)"/>
        <path id="DejaVuSans-73" d="M 2834 3397 
L 2834 2853 
Q 2591 2978 2328 3040 
Q 2066 3103 1784 3103 
Q 1356 3103 1142 2972 
Q 928 2841 928 2578 
Q 928 2378 1081 2264 
Q 1234 2150 1697 2047 
L 1894 2003 
Q 2506 1872 2764 1633 
Q 3022 1394 3022 966 
Q 3022 478 2636 193 
Q 2250 -91 1575 -91 
Q 1294 -91 989 -36 
Q 684 19 347 128 
L 347 722 
Q 666 556 975 473 
Q 1284 391 1588 391 
Q 1994 391 2212 530 
Q 2431 669 2431 922 
Q 2431 1156 2273 1281 
Q 2116 1406 1581 1522 
L 1381 1569 
Q 847 1681 609 1914 
Q 372 2147 372 2553 
Q 372 3047 722 3315 
Q 1072 3584 1716 3584 
Q 2034 3584 2315 3537 
Q 2597 3491 2834 3397 
z
" transform="scale(0.015625)"/>
        <path id="DejaVuSans-65" d="M 3597 1894 
L 3597 1613 
L 953 1613 
Q 991 1019 1311 708 
Q 1631 397 2203 397 
Q 2534 397 2845 478 
Q 3156 559 3463 722 
L 3463 178 
Q 3153 47 2828 -22 
Q 2503 -91 2169 -91 
Q 1331 -91 842 396 
Q 353 884 353 1716 
Q 353 2575 817 3079 
Q 1281 3584 2069 3584 
Q 2775 3584 3186 3129 
Q 3597 2675 3597 1894 
z
M 3022 2063 
Q 3016 2534 2758 2815 
Q 2500 3097 2075 3097 
Q 1594 3097 1305 2825 
Q 1016 2553 972 2059 
L 3022 2063 
z
" transform="scale(0.015625)"/>
        <path id="DejaVuSans-71" d="M 947 1747 
Q 947 1113 1208 752 
Q 1469 391 1925 391 
Q 2381 391 2643 752 
Q 2906 1113 2906 1747 
Q 2906 2381 2643 2742 
Q 2381 3103 1925 3103 
Q 1469 3103 1208 2742 
Q 947 2381 947 1747 
z
M 2906 525 
Q 2725 213 2448 61 
Q 2172 -91 1784 -91 
Q 1150 -91 751 415 
Q 353 922 353 1747 
Q 353 2572 751 3078 
Q 1150 3584 1784 3584 
Q 2172 3584 2448 3432 
Q 2725 3281 2906 2969 
L 2906 3500 
L 3481 3500 
L 3481 -1331 
L 2906 -1331 
L 2906 525 
z
" transform="scale(0.015625)"/>
        <path id="DejaVuSans-2e" d="M 684 794 
L 1344 794 
L 1344 0 
L 684 0 
L 684 794 
z
" transform="scale(0.015625)"/>
       </defs>
       <use xlink:href="#DejaVuSans-41"/>
       <use xlink:href="#DejaVuSans-6d" x="68.408203"/>
       <use xlink:href="#DejaVuSans-6f" x="165.820312"/>
       <use xlink:href="#DejaVuSans-75" x="227.001953"/>
       <use xlink:href="#DejaVuSans-6e" x="290.380859"/>
       <use xlink:href="#DejaVuSans-74" x="353.759766"/>
       <use xlink:href="#DejaVuSans-20" x="392.96875"/>
       <use xlink:href="#DejaVuSans-6f" x="424.755859"/>
       <use xlink:href="#DejaVuSans-66" x="485.9375"/>
       <use xlink:href="#DejaVuSans-20" x="521.142578"/>
       <use xlink:href="#DejaVuSans-62" x="552.929688"/>
       <use xlink:href="#DejaVuSans-61" x="616.40625"/>
       <use xlink:href="#DejaVuSans-73" x="677.685547"/>
       <use xlink:href="#DejaVuSans-65" x="729.785156"/>
       <use xlink:href="#DejaVuSans-20" x="791.308594"/>
       <use xlink:href="#DejaVuSans-28" x="823.095703"/>
       <use xlink:href="#DejaVuSans-65" x="862.109375"/>
       <use xlink:href="#DejaVuSans-71" x="923.632812"/>
       <use xlink:href="#DejaVuSans-2e" x="987.109375"/>
       <use xlink:href="#DejaVuSans-29" x="1018.896484"/>
      </g>
     </g>
    </g>
    <g id="ytick_3">
     <g id="line2d_8">
      <g>
       <use xlink:href="#ma438dcc0fe" x="146.14" y="429.324167" style="stroke: #000000; stroke-width: 0.8"/>
      </g>
     </g>
     <g id="text_8">
      <!-- Frequency (Hz) -->
      <g transform="translate(63.730625 433.123385) scale(0.1 -0.1)">
       <defs>
        <path id="DejaVuSans-46" d="M 628 4666 
L 3309 4666 
L 3309 4134 
L 1259 4134 
L 1259 2759 
L 3109 2759 
L 3109 2228 
L 1259 2228 
L 1259 0 
L 628 0 
L 628 4666 
z
" transform="scale(0.015625)"/>
        <path id="DejaVuSans-72" d="M 2631 2963 
Q 2534 3019 2420 3045 
Q 2306 3072 2169 3072 
Q 1681 3072 1420 2755 
Q 1159 2438 1159 1844 
L 1159 0 
L 581 0 
L 581 3500 
L 1159 3500 
L 1159 2956 
Q 1341 3275 1631 3429 
Q 1922 3584 2338 3584 
Q 2397 3584 2469 3576 
Q 2541 3569 2628 3553 
L 2631 2963 
z
" transform="scale(0.015625)"/>
        <path id="DejaVuSans-63" d="M 3122 3366 
L 3122 2828 
Q 2878 2963 2633 3030 
Q 2388 3097 2138 3097 
Q 1578 3097 1268 2742 
Q 959 2388 959 1747 
Q 959 1106 1268 751 
Q 1578 397 2138 397 
Q 2388 397 2633 464 
Q 2878 531 3122 666 
L 3122 134 
Q 2881 22 2623 -34 
Q 2366 -91 2075 -91 
Q 1284 -91 818 406 
Q 353 903 353 1747 
Q 353 2603 823 3093 
Q 1294 3584 2113 3584 
Q 2378 3584 2631 3529 
Q 2884 3475 3122 3366 
z
" transform="scale(0.015625)"/>
        <path id="DejaVuSans-79" d="M 2059 -325 
Q 1816 -950 1584 -1140 
Q 1353 -1331 966 -1331 
L 506 -1331 
L 506 -850 
L 844 -850 
Q 1081 -850 1212 -737 
Q 1344 -625 1503 -206 
L 1606 56 
L 191 3500 
L 800 3500 
L 1894 763 
L 2988 3500 
L 3597 3500 
L 2059 -325 
z
" transform="scale(0.015625)"/>
        <path id="DejaVuSans-48" d="M 628 4666 
L 1259 4666 
L 1259 2753 
L 3553 2753 
L 3553 4666 
L 4184 4666 
L 4184 0 
L 3553 0 
L 3553 2222 
L 1259 2222 
L 1259 0 
L 628 0 
L 628 4666 
z
" transform="scale(0.015625)"/>
        <path id="DejaVuSans-7a" d="M 353 3500 
L 3084 3500 
L 3084 2975 
L 922 459 
L 3084 459 
L 3084 0 
L 275 0 
L 275 525 
L 2438 3041 
L 353 3041 
L 353 3500 
z
" transform="scale(0.015625)"/>
       </defs>
       <use xlink:href="#DejaVuSans-46"/>
       <use xlink:href="#DejaVuSans-72" x="50.269531"/>
       <use xlink:href="#DejaVuSans-65" x="89.132812"/>
       <use xlink:href="#DejaVuSans-71" x="150.65625"/>
       <use xlink:href="#DejaVuSans-75" x="214.132812"/>
       <use xlink:href="#DejaVuSans-65" x="277.511719"/>
       <use xlink:href="#DejaVuSans-6e" x="339.035156"/>
       <use xlink:href="#DejaVuSans-63" x="402.414062"/>
       <use xlink:href="#DejaVuSans-79" x="457.394531"/>
       <use xlink:href="#DejaVuSans-20" x="516.574219"/>
       <use xlink:href="#DejaVuSans-28" x="548.361328"/>
       <use xlink:href="#DejaVuSans-48" x="587.375"/>
       <use xlink:href="#DejaVuSans-7a" x="662.570312"/>
       <use xlink:href="#DejaVuSans-29" x="715.060547"/>
      </g>
     </g>
    </g>
    <g id="ytick_4">
     <g id="line2d_9">
      <g>
       <use xlink:href="#ma438dcc0fe" x="146.14" y="410.605833" style="stroke: #000000; stroke-width: 0.8"/>
      </g>
     </g>
     <g id="text_9">
      <!-- Temperature(C) -->
      <g transform="translate(61.015 414.405052) scale(0.1 -0.1)">
       <defs>
        <path id="DejaVuSans-54" d="M -19 4666 
L 3928 4666 
L 3928 4134 
L 2272 4134 
L 2272 0 
L 1638 0 
L 1638 4134 
L -19 4134 
L -19 4666 
z
" transform="scale(0.015625)"/>
        <path id="DejaVuSans-70" d="M 1159 525 
L 1159 -1331 
L 581 -1331 
L 581 3500 
L 1159 3500 
L 1159 2969 
Q 1341 3281 1617 3432 
Q 1894 3584 2278 3584 
Q 2916 3584 3314 3078 
Q 3713 2572 3713 1747 
Q 3713 922 3314 415 
Q 2916 -91 2278 -91 
Q 1894 -91 1617 61 
Q 1341 213 1159 525 
z
M 3116 1747 
Q 3116 2381 2855 2742 
Q 2594 3103 2138 3103 
Q 1681 3103 1420 2742 
Q 1159 2381 1159 1747 
Q 1159 1113 1420 752 
Q 1681 391 2138 391 
Q 2594 391 2855 752 
Q 3116 1113 3116 1747 
z
" transform="scale(0.015625)"/>
        <path id="DejaVuSans-43" d="M 4122 4306 
L 4122 3641 
Q 3803 3938 3442 4084 
Q 3081 4231 2675 4231 
Q 1875 4231 1450 3742 
Q 1025 3253 1025 2328 
Q 1025 1406 1450 917 
Q 1875 428 2675 428 
Q 3081 428 3442 575 
Q 3803 722 4122 1019 
L 4122 359 
Q 3791 134 3420 21 
Q 3050 -91 2638 -91 
Q 1578 -91 968 557 
Q 359 1206 359 2328 
Q 359 3453 968 4101 
Q 1578 4750 2638 4750 
Q 3056 4750 3426 4639 
Q 3797 4528 4122 4306 
z
" transform="scale(0.015625)"/>
       </defs>
       <use xlink:href="#DejaVuSans-54"/>
       <use xlink:href="#DejaVuSans-65" x="44.083984"/>
       <use xlink:href="#DejaVuSans-6d" x="105.607422"/>
       <use xlink:href="#DejaVuSans-70" x="203.019531"/>
       <use xlink:href="#DejaVuSans-65" x="266.496094"/>
       <use xlink:href="#DejaVuSans-72" x="328.019531"/>
       <use xlink:href="#DejaVuSans-61" x="369.132812"/>
       <use xlink:href="#DejaVuSans-74" x="430.412109"/>
       <use xlink:href="#DejaVuSans-75" x="469.621094"/>
       <use xlink:href="#DejaVuSans-72" x="533"/>
       <use xlink:href="#DejaVuSans-65" x="571.863281"/>
       <use xlink:href="#DejaVuSans-28" x="633.386719"/>
       <use xlink:href="#DejaVuSans-43" x="672.400391"/>
       <use xlink:href="#DejaVuSans-29" x="742.224609"/>
      </g>
     </g>
    </g>
    <g id="ytick_5">
     <g id="line2d_10">
      <g>
       <use xlink:href="#ma438dcc0fe" x="146.14" y="391.8875" style="stroke: #000000; stroke-width: 0.8"/>
      </g>
     </g>
     <g id="text_10">
      <!-- Time (h) -->
      <g transform="translate(97.354063 395.686719) scale(0.1 -0.1)">
       <defs>
        <path id="DejaVuSans-68" d="M 3513 2113 
L 3513 0 
L 2938 0 
L 2938 2094 
Q 2938 2591 2744 2837 
Q 2550 3084 2163 3084 
Q 1697 3084 1428 2787 
Q 1159 2491 1159 1978 
L 1159 0 
L 581 0 
L 581 4863 
L 1159 4863 
L 1159 2956 
Q 1366 3272 1645 3428 
Q 1925 3584 2291 3584 
Q 2894 3584 3203 3211 
Q 3513 2838 3513 2113 
z
" transform="scale(0.015625)"/>
       </defs>
       <use xlink:href="#DejaVuSans-54"/>
       <use xlink:href="#DejaVuSans-69" x="57.958984"/>
       <use xlink:href="#DejaVuSans-6d" x="85.742188"/>
       <use xlink:href="#DejaVuSans-65" x="183.154297"/>
       <use xlink:href="#DejaVuSans-20" x="244.677734"/>
       <use xlink:href="#DejaVuSans-28" x="276.464844"/>
       <use xlink:href="#DejaVuSans-68" x="315.478516"/>
       <use xlink:href="#DejaVuSans-29" x="378.857422"/>
      </g>
     </g>
    </g>
    <g id="ytick_6">
     <g id="line2d_11">
      <g>
       <use xlink:href="#ma438dcc0fe" x="146.14" y="373.169167" style="stroke: #000000; stroke-width: 0.8"/>
      </g>
     </g>
     <g id="text_11">
      <!-- Current type -->
      <g transform="translate(76.068125 376.968385) scale(0.1 -0.1)">
       <use xlink:href="#DejaVuSans-43"/>
       <use xlink:href="#DejaVuSans-75" x="69.824219"/>
       <use xlink:href="#DejaVuSans-72" x="133.203125"/>
       <use xlink:href="#DejaVuSans-72" x="172.566406"/>
       <use xlink:href="#DejaVuSans-65" x="211.429688"/>
       <use xlink:href="#DejaVuSans-6e" x="272.953125"/>
       <use xlink:href="#DejaVuSans-74" x="336.332031"/>
       <use xlink:href="#DejaVuSans-20" x="375.541016"/>
       <use xlink:href="#DejaVuSans-74" x="407.328125"/>
       <use xlink:href="#DejaVuSans-79" x="446.537109"/>
       <use xlink:href="#DejaVuSans-70" x="505.716797"/>
       <use xlink:href="#DejaVuSans-65" x="569.193359"/>
      </g>
     </g>
    </g>
    <g id="ytick_7">
     <g id="line2d_12">
      <g>
       <use xlink:href="#ma438dcc0fe" x="146.14" y="354.450833" style="stroke: #000000; stroke-width: 0.8"/>
      </g>
     </g>
     <g id="text_12">
      <!-- HOMO_R1 -->
      <g transform="translate(88.936875 358.161771) scale(0.1 -0.1)">
       <defs>
        <path id="DejaVuSans-4f" d="M 2522 4238 
Q 1834 4238 1429 3725 
Q 1025 3213 1025 2328 
Q 1025 1447 1429 934 
Q 1834 422 2522 422 
Q 3209 422 3611 934 
Q 4013 1447 4013 2328 
Q 4013 3213 3611 3725 
Q 3209 4238 2522 4238 
z
M 2522 4750 
Q 3503 4750 4090 4092 
Q 4678 3434 4678 2328 
Q 4678 1225 4090 567 
Q 3503 -91 2522 -91 
Q 1538 -91 948 565 
Q 359 1222 359 2328 
Q 359 3434 948 4092 
Q 1538 4750 2522 4750 
z
" transform="scale(0.015625)"/>
        <path id="DejaVuSans-4d" d="M 628 4666 
L 1569 4666 
L 2759 1491 
L 3956 4666 
L 4897 4666 
L 4897 0 
L 4281 0 
L 4281 4097 
L 3078 897 
L 2444 897 
L 1241 4097 
L 1241 0 
L 628 0 
L 628 4666 
z
" transform="scale(0.015625)"/>
        <path id="DejaVuSans-5f" d="M 3263 -1063 
L 3263 -1509 
L -63 -1509 
L -63 -1063 
L 3263 -1063 
z
" transform="scale(0.015625)"/>
        <path id="DejaVuSans-52" d="M 2841 2188 
Q 3044 2119 3236 1894 
Q 3428 1669 3622 1275 
L 4263 0 
L 3584 0 
L 2988 1197 
Q 2756 1666 2539 1819 
Q 2322 1972 1947 1972 
L 1259 1972 
L 1259 0 
L 628 0 
L 628 4666 
L 2053 4666 
Q 2853 4666 3247 4331 
Q 3641 3997 3641 3322 
Q 3641 2881 3436 2590 
Q 3231 2300 2841 2188 
z
M 1259 4147 
L 1259 2491 
L 2053 2491 
Q 2509 2491 2742 2702 
Q 2975 2913 2975 3322 
Q 2975 3731 2742 3939 
Q 2509 4147 2053 4147 
L 1259 4147 
z
" transform="scale(0.015625)"/>
       </defs>
       <use xlink:href="#DejaVuSans-48"/>
       <use xlink:href="#DejaVuSans-4f" x="75.195312"/>
       <use xlink:href="#DejaVuSans-4d" x="153.90625"/>
       <use xlink:href="#DejaVuSans-4f" x="240.185547"/>
       <use xlink:href="#DejaVuSans-5f" x="318.896484"/>
       <use xlink:href="#DejaVuSans-52" x="368.896484"/>
       <use xlink:href="#DejaVuSans-31" x="438.378906"/>
      </g>
     </g>
    </g>
    <g id="ytick_8">
     <g id="line2d_13">
      <g>
       <use xlink:href="#ma438dcc0fe" x="146.14" y="335.7325" style="stroke: #000000; stroke-width: 0.8"/>
      </g>
     </g>
     <g id="text_13">
      <!-- LUMO_R1 -->
      <g transform="translate(91.938438 339.443437) scale(0.1 -0.1)">
       <defs>
        <path id="DejaVuSans-4c" d="M 628 4666 
L 1259 4666 
L 1259 531 
L 3531 531 
L 3531 0 
L 628 0 
L 628 4666 
z
" transform="scale(0.015625)"/>
        <path id="DejaVuSans-55" d="M 556 4666 
L 1191 4666 
L 1191 1831 
Q 1191 1081 1462 751 
Q 1734 422 2344 422 
Q 2950 422 3222 751 
Q 3494 1081 3494 1831 
L 3494 4666 
L 4128 4666 
L 4128 1753 
Q 4128 841 3676 375 
Q 3225 -91 2344 -91 
Q 1459 -91 1007 375 
Q 556 841 556 1753 
L 556 4666 
z
" transform="scale(0.015625)"/>
       </defs>
       <use xlink:href="#DejaVuSans-4c"/>
       <use xlink:href="#DejaVuSans-55" x="50.712891"/>
       <use xlink:href="#DejaVuSans-4d" x="123.90625"/>
       <use xlink:href="#DejaVuSans-4f" x="210.185547"/>
       <use xlink:href="#DejaVuSans-5f" x="288.896484"/>
       <use xlink:href="#DejaVuSans-52" x="338.896484"/>
       <use xlink:href="#DejaVuSans-31" x="408.378906"/>
      </g>
     </g>
    </g>
    <g id="ytick_9">
     <g id="line2d_14">
      <g>
       <use xlink:href="#ma438dcc0fe" x="146.14" y="317.014167" style="stroke: #000000; stroke-width: 0.8"/>
      </g>
     </g>
     <g id="text_14">
      <!-- MU_R1 -->
      <g transform="translate(104.882188 320.674323) scale(0.1 -0.1)">
       <use xlink:href="#DejaVuSans-4d"/>
       <use xlink:href="#DejaVuSans-55" x="86.279297"/>
       <use xlink:href="#DejaVuSans-5f" x="159.472656"/>
       <use xlink:href="#DejaVuSans-52" x="209.472656"/>
       <use xlink:href="#DejaVuSans-31" x="278.955078"/>
      </g>
     </g>
    </g>
    <g id="ytick_10">
     <g id="line2d_15">
      <g>
       <use xlink:href="#ma438dcc0fe" x="146.14" y="298.295833" style="stroke: #000000; stroke-width: 0.8"/>
      </g>
     </g>
     <g id="text_15">
      <!-- HOMO_R2 -->
      <g transform="translate(88.936875 302.006771) scale(0.1 -0.1)">
       <use xlink:href="#DejaVuSans-48"/>
       <use xlink:href="#DejaVuSans-4f" x="75.195312"/>
       <use xlink:href="#DejaVuSans-4d" x="153.90625"/>
       <use xlink:href="#DejaVuSans-4f" x="240.185547"/>
       <use xlink:href="#DejaVuSans-5f" x="318.896484"/>
       <use xlink:href="#DejaVuSans-52" x="368.896484"/>
       <use xlink:href="#DejaVuSans-32" x="438.378906"/>
      </g>
     </g>
    </g>
    <g id="ytick_11">
     <g id="line2d_16">
      <g>
       <use xlink:href="#ma438dcc0fe" x="146.14" y="279.5775" style="stroke: #000000; stroke-width: 0.8"/>
      </g>
     </g>
     <g id="text_16">
      <!-- LUMO_R2 -->
      <g transform="translate(91.938438 283.288437) scale(0.1 -0.1)">
       <use xlink:href="#DejaVuSans-4c"/>
       <use xlink:href="#DejaVuSans-55" x="50.712891"/>
       <use xlink:href="#DejaVuSans-4d" x="123.90625"/>
       <use xlink:href="#DejaVuSans-4f" x="210.185547"/>
       <use xlink:href="#DejaVuSans-5f" x="288.896484"/>
       <use xlink:href="#DejaVuSans-52" x="338.896484"/>
       <use xlink:href="#DejaVuSans-32" x="408.378906"/>
      </g>
     </g>
    </g>
    <g id="ytick_12">
     <g id="line2d_17">
      <g>
       <use xlink:href="#ma438dcc0fe" x="146.14" y="260.859167" style="stroke: #000000; stroke-width: 0.8"/>
      </g>
     </g>
     <g id="text_17">
      <!-- MU_R2 -->
      <g transform="translate(104.882188 264.570104) scale(0.1 -0.1)">
       <use xlink:href="#DejaVuSans-4d"/>
       <use xlink:href="#DejaVuSans-55" x="86.279297"/>
       <use xlink:href="#DejaVuSans-5f" x="159.472656"/>
       <use xlink:href="#DejaVuSans-52" x="209.472656"/>
       <use xlink:href="#DejaVuSans-32" x="278.955078"/>
      </g>
     </g>
    </g>
    <g id="ytick_13">
     <g id="line2d_18">
      <g>
       <use xlink:href="#ma438dcc0fe" x="146.14" y="242.140833" style="stroke: #000000; stroke-width: 0.8"/>
      </g>
     </g>
     <g id="text_18">
      <!-- HOMO_SOLV -->
      <g transform="translate(76.715 245.851771) scale(0.1 -0.1)">
       <defs>
        <path id="DejaVuSans-53" d="M 3425 4513 
L 3425 3897 
Q 3066 4069 2747 4153 
Q 2428 4238 2131 4238 
Q 1616 4238 1336 4038 
Q 1056 3838 1056 3469 
Q 1056 3159 1242 3001 
Q 1428 2844 1947 2747 
L 2328 2669 
Q 3034 2534 3370 2195 
Q 3706 1856 3706 1288 
Q 3706 609 3251 259 
Q 2797 -91 1919 -91 
Q 1588 -91 1214 -16 
Q 841 59 441 206 
L 441 856 
Q 825 641 1194 531 
Q 1563 422 1919 422 
Q 2459 422 2753 634 
Q 3047 847 3047 1241 
Q 3047 1584 2836 1778 
Q 2625 1972 2144 2069 
L 1759 2144 
Q 1053 2284 737 2584 
Q 422 2884 422 3419 
Q 422 4038 858 4394 
Q 1294 4750 2059 4750 
Q 2388 4750 2728 4690 
Q 3069 4631 3425 4513 
z
" transform="scale(0.015625)"/>
        <path id="DejaVuSans-56" d="M 1831 0 
L 50 4666 
L 709 4666 
L 2188 738 
L 3669 4666 
L 4325 4666 
L 2547 0 
L 1831 0 
z
" transform="scale(0.015625)"/>
       </defs>
       <use xlink:href="#DejaVuSans-48"/>
       <use xlink:href="#DejaVuSans-4f" x="75.195312"/>
       <use xlink:href="#DejaVuSans-4d" x="153.90625"/>
       <use xlink:href="#DejaVuSans-4f" x="240.185547"/>
       <use xlink:href="#DejaVuSans-5f" x="318.896484"/>
       <use xlink:href="#DejaVuSans-53" x="368.896484"/>
       <use xlink:href="#DejaVuSans-4f" x="432.373047"/>
       <use xlink:href="#DejaVuSans-4c" x="511.083984"/>
       <use xlink:href="#DejaVuSans-56" x="555.796875"/>
      </g>
     </g>
    </g>
    <g id="ytick_14">
     <g id="line2d_19">
      <g>
       <use xlink:href="#ma438dcc0fe" x="146.14" y="223.4225" style="stroke: #000000; stroke-width: 0.8"/>
      </g>
     </g>
     <g id="text_19">
      <!-- LUMO_SOLV -->
      <g transform="translate(79.716563 227.133438) scale(0.1 -0.1)">
       <use xlink:href="#DejaVuSans-4c"/>
       <use xlink:href="#DejaVuSans-55" x="50.712891"/>
       <use xlink:href="#DejaVuSans-4d" x="123.90625"/>
       <use xlink:href="#DejaVuSans-4f" x="210.185547"/>
       <use xlink:href="#DejaVuSans-5f" x="288.896484"/>
       <use xlink:href="#DejaVuSans-53" x="338.896484"/>
       <use xlink:href="#DejaVuSans-4f" x="402.373047"/>
       <use xlink:href="#DejaVuSans-4c" x="481.083984"/>
       <use xlink:href="#DejaVuSans-56" x="525.796875"/>
      </g>
     </g>
    </g>
    <g id="ytick_15">
     <g id="line2d_20">
      <g>
       <use xlink:href="#ma438dcc0fe" x="146.14" y="204.704167" style="stroke: #000000; stroke-width: 0.8"/>
      </g>
     </g>
     <g id="text_20">
      <!-- MU_SOLV -->
      <g transform="translate(92.660313 208.415104) scale(0.1 -0.1)">
       <use xlink:href="#DejaVuSans-4d"/>
       <use xlink:href="#DejaVuSans-55" x="86.279297"/>
       <use xlink:href="#DejaVuSans-5f" x="159.472656"/>
       <use xlink:href="#DejaVuSans-53" x="209.472656"/>
       <use xlink:href="#DejaVuSans-4f" x="272.949219"/>
       <use xlink:href="#DejaVuSans-4c" x="351.660156"/>
       <use xlink:href="#DejaVuSans-56" x="396.373047"/>
      </g>
     </g>
    </g>
    <g id="ytick_16">
     <g id="line2d_21">
      <g>
       <use xlink:href="#ma438dcc0fe" x="146.14" y="185.985833" style="stroke: #000000; stroke-width: 0.8"/>
      </g>
     </g>
     <g id="text_21">
      <!-- HOMO_BASE -->
      <g transform="translate(75.879063 189.696771) scale(0.1 -0.1)">
       <defs>
        <path id="DejaVuSans-42" d="M 1259 2228 
L 1259 519 
L 2272 519 
Q 2781 519 3026 730 
Q 3272 941 3272 1375 
Q 3272 1813 3026 2020 
Q 2781 2228 2272 2228 
L 1259 2228 
z
M 1259 4147 
L 1259 2741 
L 2194 2741 
Q 2656 2741 2882 2914 
Q 3109 3088 3109 3444 
Q 3109 3797 2882 3972 
Q 2656 4147 2194 4147 
L 1259 4147 
z
M 628 4666 
L 2241 4666 
Q 2963 4666 3353 4366 
Q 3744 4066 3744 3513 
Q 3744 3084 3544 2831 
Q 3344 2578 2956 2516 
Q 3422 2416 3680 2098 
Q 3938 1781 3938 1306 
Q 3938 681 3513 340 
Q 3088 0 2303 0 
L 628 0 
L 628 4666 
z
" transform="scale(0.015625)"/>
        <path id="DejaVuSans-45" d="M 628 4666 
L 3578 4666 
L 3578 4134 
L 1259 4134 
L 1259 2753 
L 3481 2753 
L 3481 2222 
L 1259 2222 
L 1259 531 
L 3634 531 
L 3634 0 
L 628 0 
L 628 4666 
z
" transform="scale(0.015625)"/>
       </defs>
       <use xlink:href="#DejaVuSans-48"/>
       <use xlink:href="#DejaVuSans-4f" x="75.195312"/>
       <use xlink:href="#DejaVuSans-4d" x="153.90625"/>
       <use xlink:href="#DejaVuSans-4f" x="240.185547"/>
       <use xlink:href="#DejaVuSans-5f" x="318.896484"/>
       <use xlink:href="#DejaVuSans-42" x="368.896484"/>
       <use xlink:href="#DejaVuSans-41" x="437.5"/>
       <use xlink:href="#DejaVuSans-53" x="505.908203"/>
       <use xlink:href="#DejaVuSans-45" x="569.384766"/>
      </g>
     </g>
    </g>
    <g id="ytick_17">
     <g id="line2d_22">
      <g>
       <use xlink:href="#ma438dcc0fe" x="146.14" y="167.2675" style="stroke: #000000; stroke-width: 0.8"/>
      </g>
     </g>
     <g id="text_22">
      <!-- LUMO_BASE -->
      <g transform="translate(78.880625 170.978437) scale(0.1 -0.1)">
       <use xlink:href="#DejaVuSans-4c"/>
       <use xlink:href="#DejaVuSans-55" x="50.712891"/>
       <use xlink:href="#DejaVuSans-4d" x="123.90625"/>
       <use xlink:href="#DejaVuSans-4f" x="210.185547"/>
       <use xlink:href="#DejaVuSans-5f" x="288.896484"/>
       <use xlink:href="#DejaVuSans-42" x="338.896484"/>
       <use xlink:href="#DejaVuSans-41" x="407.5"/>
       <use xlink:href="#DejaVuSans-53" x="475.908203"/>
       <use xlink:href="#DejaVuSans-45" x="539.384766"/>
      </g>
     </g>
    </g>
    <g id="ytick_18">
     <g id="line2d_23">
      <g>
       <use xlink:href="#ma438dcc0fe" x="146.14" y="148.549167" style="stroke: #000000; stroke-width: 0.8"/>
      </g>
     </g>
     <g id="text_23">
      <!-- MU_BASE -->
      <g transform="translate(91.824375 152.260104) scale(0.1 -0.1)">
       <use xlink:href="#DejaVuSans-4d"/>
       <use xlink:href="#DejaVuSans-55" x="86.279297"/>
       <use xlink:href="#DejaVuSans-5f" x="159.472656"/>
       <use xlink:href="#DejaVuSans-42" x="209.472656"/>
       <use xlink:href="#DejaVuSans-41" x="278.076172"/>
       <use xlink:href="#DejaVuSans-53" x="346.484375"/>
       <use xlink:href="#DejaVuSans-45" x="409.960938"/>
      </g>
     </g>
    </g>
    <g id="ytick_19">
     <g id="line2d_24">
      <g>
       <use xlink:href="#ma438dcc0fe" x="146.14" y="129.830833" style="stroke: #000000; stroke-width: 0.8"/>
      </g>
     </g>
     <g id="text_24">
      <!-- HOMO_LIGAND -->
      <g transform="translate(63.955625 133.541771) scale(0.1 -0.1)">
       <defs>
        <path id="DejaVuSans-49" d="M 628 4666 
L 1259 4666 
L 1259 0 
L 628 0 
L 628 4666 
z
" transform="scale(0.015625)"/>
        <path id="DejaVuSans-47" d="M 3809 666 
L 3809 1919 
L 2778 1919 
L 2778 2438 
L 4434 2438 
L 4434 434 
Q 4069 175 3628 42 
Q 3188 -91 2688 -91 
Q 1594 -91 976 548 
Q 359 1188 359 2328 
Q 359 3472 976 4111 
Q 1594 4750 2688 4750 
Q 3144 4750 3555 4637 
Q 3966 4525 4313 4306 
L 4313 3634 
Q 3963 3931 3569 4081 
Q 3175 4231 2741 4231 
Q 1884 4231 1454 3753 
Q 1025 3275 1025 2328 
Q 1025 1384 1454 906 
Q 1884 428 2741 428 
Q 3075 428 3337 486 
Q 3600 544 3809 666 
z
" transform="scale(0.015625)"/>
        <path id="DejaVuSans-4e" d="M 628 4666 
L 1478 4666 
L 3547 763 
L 3547 4666 
L 4159 4666 
L 4159 0 
L 3309 0 
L 1241 3903 
L 1241 0 
L 628 0 
L 628 4666 
z
" transform="scale(0.015625)"/>
        <path id="DejaVuSans-44" d="M 1259 4147 
L 1259 519 
L 2022 519 
Q 2988 519 3436 956 
Q 3884 1394 3884 2338 
Q 3884 3275 3436 3711 
Q 2988 4147 2022 4147 
L 1259 4147 
z
M 628 4666 
L 1925 4666 
Q 3281 4666 3915 4102 
Q 4550 3538 4550 2338 
Q 4550 1131 3912 565 
Q 3275 0 1925 0 
L 628 0 
L 628 4666 
z
" transform="scale(0.015625)"/>
       </defs>
       <use xlink:href="#DejaVuSans-48"/>
       <use xlink:href="#DejaVuSans-4f" x="75.195312"/>
       <use xlink:href="#DejaVuSans-4d" x="153.90625"/>
       <use xlink:href="#DejaVuSans-4f" x="240.185547"/>
       <use xlink:href="#DejaVuSans-5f" x="318.896484"/>
       <use xlink:href="#DejaVuSans-4c" x="368.896484"/>
       <use xlink:href="#DejaVuSans-49" x="424.609375"/>
       <use xlink:href="#DejaVuSans-47" x="454.101562"/>
       <use xlink:href="#DejaVuSans-41" x="531.591797"/>
       <use xlink:href="#DejaVuSans-4e" x="600"/>
       <use xlink:href="#DejaVuSans-44" x="674.804688"/>
      </g>
     </g>
    </g>
    <g id="ytick_20">
     <g id="line2d_25">
      <g>
       <use xlink:href="#ma438dcc0fe" x="146.14" y="111.1125" style="stroke: #000000; stroke-width: 0.8"/>
      </g>
     </g>
     <g id="text_25">
      <!-- LUMO_LIGAND -->
      <g transform="translate(66.957188 114.823438) scale(0.1 -0.1)">
       <use xlink:href="#DejaVuSans-4c"/>
       <use xlink:href="#DejaVuSans-55" x="50.712891"/>
       <use xlink:href="#DejaVuSans-4d" x="123.90625"/>
       <use xlink:href="#DejaVuSans-4f" x="210.185547"/>
       <use xlink:href="#DejaVuSans-5f" x="288.896484"/>
       <use xlink:href="#DejaVuSans-4c" x="338.896484"/>
       <use xlink:href="#DejaVuSans-49" x="394.609375"/>
       <use xlink:href="#DejaVuSans-47" x="424.101562"/>
       <use xlink:href="#DejaVuSans-41" x="501.591797"/>
       <use xlink:href="#DejaVuSans-4e" x="570"/>
       <use xlink:href="#DejaVuSans-44" x="644.804688"/>
      </g>
     </g>
    </g>
    <g id="ytick_21">
     <g id="line2d_26">
      <g>
       <use xlink:href="#ma438dcc0fe" x="146.14" y="92.394167" style="stroke: #000000; stroke-width: 0.8"/>
      </g>
     </g>
     <g id="text_26">
      <!-- MU_LIGAND -->
      <g transform="translate(79.900938 96.105104) scale(0.1 -0.1)">
       <use xlink:href="#DejaVuSans-4d"/>
       <use xlink:href="#DejaVuSans-55" x="86.279297"/>
       <use xlink:href="#DejaVuSans-5f" x="159.472656"/>
       <use xlink:href="#DejaVuSans-4c" x="209.472656"/>
       <use xlink:href="#DejaVuSans-49" x="265.185547"/>
       <use xlink:href="#DejaVuSans-47" x="294.677734"/>
       <use xlink:href="#DejaVuSans-41" x="372.167969"/>
       <use xlink:href="#DejaVuSans-4e" x="440.576172"/>
       <use xlink:href="#DejaVuSans-44" x="515.380859"/>
      </g>
     </g>
    </g>
    <g id="ytick_22">
     <g id="line2d_27">
      <g>
       <use xlink:href="#ma438dcc0fe" x="146.14" y="73.675833" style="stroke: #000000; stroke-width: 0.8"/>
      </g>
     </g>
     <g id="text_27">
      <!-- HOMO_ELECTR -->
      <g transform="translate(63.999375 77.386771) scale(0.1 -0.1)">
       <use xlink:href="#DejaVuSans-48"/>
       <use xlink:href="#DejaVuSans-4f" x="75.195312"/>
       <use xlink:href="#DejaVuSans-4d" x="153.90625"/>
       <use xlink:href="#DejaVuSans-4f" x="240.185547"/>
       <use xlink:href="#DejaVuSans-5f" x="318.896484"/>
       <use xlink:href="#DejaVuSans-45" x="368.896484"/>
       <use xlink:href="#DejaVuSans-4c" x="432.080078"/>
       <use xlink:href="#DejaVuSans-45" x="487.792969"/>
       <use xlink:href="#DejaVuSans-43" x="550.976562"/>
       <use xlink:href="#DejaVuSans-54" x="620.800781"/>
       <use xlink:href="#DejaVuSans-52" x="681.884766"/>
      </g>
     </g>
    </g>
    <g id="ytick_23">
     <g id="line2d_28">
      <g>
       <use xlink:href="#ma438dcc0fe" x="146.14" y="54.9575" style="stroke: #000000; stroke-width: 0.8"/>
      </g>
     </g>
     <g id="text_28">
      <!-- LUMO_ELECTR -->
      <g transform="translate(67.000938 58.668437) scale(0.1 -0.1)">
       <use xlink:href="#DejaVuSans-4c"/>
       <use xlink:href="#DejaVuSans-55" x="50.712891"/>
       <use xlink:href="#DejaVuSans-4d" x="123.90625"/>
       <use xlink:href="#DejaVuSans-4f" x="210.185547"/>
       <use xlink:href="#DejaVuSans-5f" x="288.896484"/>
       <use xlink:href="#DejaVuSans-45" x="338.896484"/>
       <use xlink:href="#DejaVuSans-4c" x="402.080078"/>
       <use xlink:href="#DejaVuSans-45" x="457.792969"/>
       <use xlink:href="#DejaVuSans-43" x="520.976562"/>
       <use xlink:href="#DejaVuSans-54" x="590.800781"/>
       <use xlink:href="#DejaVuSans-52" x="651.884766"/>
      </g>
     </g>
    </g>
    <g id="ytick_24">
     <g id="line2d_29">
      <g>
       <use xlink:href="#ma438dcc0fe" x="146.14" y="36.239167" style="stroke: #000000; stroke-width: 0.8"/>
      </g>
     </g>
     <g id="text_29">
      <!-- MU_ELECTR -->
      <g transform="translate(79.944688 39.950104) scale(0.1 -0.1)">
       <use xlink:href="#DejaVuSans-4d"/>
       <use xlink:href="#DejaVuSans-55" x="86.279297"/>
       <use xlink:href="#DejaVuSans-5f" x="159.472656"/>
       <use xlink:href="#DejaVuSans-45" x="209.472656"/>
       <use xlink:href="#DejaVuSans-4c" x="272.65625"/>
       <use xlink:href="#DejaVuSans-45" x="328.369141"/>
       <use xlink:href="#DejaVuSans-43" x="391.552734"/>
       <use xlink:href="#DejaVuSans-54" x="461.376953"/>
       <use xlink:href="#DejaVuSans-52" x="522.460938"/>
      </g>
     </g>
    </g>
   </g>
   <g id="line2d_30">
    <path d="M 297.080013 476.12 
L 297.080013 26.88 
" clip-path="url(#p1b6530b093)" style="fill: none; stroke: #808080; stroke-width: 1.5; stroke-linecap: square"/>
   </g>
   <g id="patch_27">
    <path d="M 146.14 476.12 
L 146.14 26.88 
" style="fill: none; stroke: #000000; stroke-width: 0.8; stroke-linejoin: miter; stroke-linecap: square"/>
   </g>
   <g id="patch_28">
    <path d="M 637.2 476.12 
L 637.2 26.88 
" style="fill: none; stroke: #000000; stroke-width: 0.8; stroke-linejoin: miter; stroke-linecap: square"/>
   </g>
   <g id="patch_29">
    <path d="M 146.14 476.12 
L 637.2 476.12 
" style="fill: none; stroke: #000000; stroke-width: 0.8; stroke-linejoin: miter; stroke-linecap: square"/>
   </g>
   <g id="patch_30">
    <path d="M 146.14 26.88 
L 637.2 26.88 
" style="fill: none; stroke: #000000; stroke-width: 0.8; stroke-linejoin: miter; stroke-linecap: square"/>
   </g>
   <g id="text_30">
    <!-- LinearRegression model -->
    <g transform="translate(319.616562 20.88) scale(0.12 -0.12)">
     <use xlink:href="#DejaVuSans-4c"/>
     <use xlink:href="#DejaVuSans-69" x="55.712891"/>
     <use xlink:href="#DejaVuSans-6e" x="83.496094"/>
     <use xlink:href="#DejaVuSans-65" x="146.875"/>
     <use xlink:href="#DejaVuSans-61" x="208.398438"/>
     <use xlink:href="#DejaVuSans-72" x="269.677734"/>
     <use xlink:href="#DejaVuSans-52" x="310.791016"/>
     <use xlink:href="#DejaVuSans-65" x="375.773438"/>
     <use xlink:href="#DejaVuSans-67" x="437.296875"/>
     <use xlink:href="#DejaVuSans-72" x="500.773438"/>
     <use xlink:href="#DejaVuSans-65" x="539.636719"/>
     <use xlink:href="#DejaVuSans-73" x="601.160156"/>
     <use xlink:href="#DejaVuSans-73" x="653.259766"/>
     <use xlink:href="#DejaVuSans-69" x="705.359375"/>
     <use xlink:href="#DejaVuSans-6f" x="733.142578"/>
     <use xlink:href="#DejaVuSans-6e" x="794.324219"/>
     <use xlink:href="#DejaVuSans-20" x="857.703125"/>
     <use xlink:href="#DejaVuSans-6d" x="889.490234"/>
     <use xlink:href="#DejaVuSans-6f" x="986.902344"/>
     <use xlink:href="#DejaVuSans-64" x="1048.083984"/>
     <use xlink:href="#DejaVuSans-65" x="1111.560547"/>
     <use xlink:href="#DejaVuSans-6c" x="1173.083984"/>
    </g>
   </g>
   <g id="legend_1">
    <g id="patch_31">
     <path d="M 539.229687 49.558125 
L 630.2 49.558125 
Q 632.2 49.558125 632.2 47.558125 
L 632.2 33.88 
Q 632.2 31.88 630.2 31.88 
L 539.229687 31.88 
Q 537.229687 31.88 537.229687 33.88 
L 537.229687 47.558125 
Q 537.229687 49.558125 539.229687 49.558125 
z
" style="fill: #ffffff; opacity: 0.8; stroke: #cccccc; stroke-linejoin: miter"/>
    </g>
    <g id="patch_32">
     <path d="M 541.229687 43.478437 
L 561.229687 43.478437 
L 561.229687 36.478437 
L 541.229687 36.478437 
z
" style="fill: #1f77b4"/>
    </g>
    <g id="text_31">
     <!-- Coefficients -->
     <g transform="translate(569.229687 43.478437) scale(0.1 -0.1)">
      <use xlink:href="#DejaVuSans-43"/>
      <use xlink:href="#DejaVuSans-6f" x="69.824219"/>
      <use xlink:href="#DejaVuSans-65" x="131.005859"/>
      <use xlink:href="#DejaVuSans-66" x="192.529297"/>
      <use xlink:href="#DejaVuSans-66" x="227.734375"/>
      <use xlink:href="#DejaVuSans-69" x="262.939453"/>
      <use xlink:href="#DejaVuSans-63" x="290.722656"/>
      <use xlink:href="#DejaVuSans-69" x="345.703125"/>
      <use xlink:href="#DejaVuSans-65" x="373.486328"/>
      <use xlink:href="#DejaVuSans-6e" x="435.009766"/>
      <use xlink:href="#DejaVuSans-74" x="498.388672"/>
      <use xlink:href="#DejaVuSans-73" x="537.597656"/>
     </g>
    </g>
   </g>
  </g>
 </g>
 <defs>
  <clipPath id="p1b6530b093">
   <rect x="146.14" y="26.88" width="491.06" height="449.24"/>
  </clipPath>
 </defs>
</svg>
